<?xml version="1.0" encoding="UTF-8" standalone="no"?>
<svg
   xmlns:dc="http://purl.org/dc/elements/1.1/"
   xmlns:cc="http://creativecommons.org/ns#"
   xmlns:rdf="http://www.w3.org/1999/02/22-rdf-syntax-ns#"
   xmlns:svg="http://www.w3.org/2000/svg"
   xmlns="http://www.w3.org/2000/svg"
   version="1.1"
   viewBox="0 0 136.83725 39.022736"
   height="147.4875"
   width="517.18018">
  <g
     transform="translate(-10.956374,-251.03028)"
     id="layer1">
    <g
       style="fill:#000000"
       transform="matrix(1.0145482,0,0,1.0145482,-1.1547633,-3.9358909)"
       id="g4570">
      <g
         id="g4598">
        <g
           id="g4609">
          <g
             id="text3719"
             style="font-style:normal;font-weight:normal;font-size:9.45739841px;line-height:1.25;font-family:sans-serif;letter-spacing:0px;word-spacing:0px;fill-opacity:1;stroke:none;stroke-width:0.23643495"
             aria-label="Ata aya" />
          <g
             style="fill:#000000"
             id="g3747"
             transform="matrix(0.06336175,0,0,0.05937692,63.154424,251.72502)"
             class="">
            <path
               d="m 256,32 -96,48 h 23 v 71 h -32 v 50 h 30.945 l -26.585,239.244 -0.653,0.477 0.522,0.72 -4.175,37.566 -0.994,8.945 17.89,1.99 0.995,-8.946 L 171.61,457 h 168.78 l 2.665,23.994 0.994,8.945 17.89,-1.99 -0.995,-8.944 -4.174,-37.567 0.523,-0.72 -0.654,-0.476 L 330.054,201 H 361 V 151 H 329 V 80 h 23 z m -48,64 h 32 v 48 h -32 z m 64,0 h 32 v 48 h -32 z m -103,73 h 14 v 14 h -14 z m 32,0 h 14 v 14 h -14 z m 32,0 h 14 v 14 h -14 z m 32,0 h 14 v 14 h -14 z m 32,0 h 14 v 14 h -14 z m 32,0 h 14 v 14 h -14 z m -113.328,32 h 80.656 L 256,236.848 Z m -16.65,9.283 L 240.33,247 h -45.385 l 4.08,-36.717 z m 113.955,0 4.08,36.717 H 271.672 Z M 192.945,265 h 31.383 l -34.822,30.953 3.44,-30.953 z m 58.477,0 h 9.156 l 51.75,46 H 199.672 Z m 36.25,0 h 31.383 l 3.44,30.953 L 287.67,265 Z m -83.994,64 H 308.322 L 256,367.053 Z m -18.8,8.586 51.445,37.414 h -55.6 l 4.157,-37.414 z m 142.243,0 4.157,37.414 h -55.6 l 51.444,-37.414 z M 178.724,393 h 41.6 l -45.26,32.914 z m 72.205,0 h 10.144 l 63.25,46 H 187.678 l 63.25,-46 z m 40.75,0 h 41.6 l 3.658,32.914 L 291.678,393 Z m 966.4349,98.25081 q -5.1309,-10.95022 -8.3377,-39.01044 -41.3672,45.85434 -98.7684,45.85434 -51.3083,0 -84.3378,-30.79765 -32.7092,-31.14005 -32.7092,-78.7055 0,-57.83139 41.0467,-89.65571 41.3672,-32.16654 116.0849,-32.16654 h 57.7218 v -29.08672 q 0,-33.1932 -18.5992,-52.69842 -18.5992,-19.84745 -54.8358,-19.84745 -31.7469,0 -53.2322,17.10985 -21.4854,17.10985 -21.4854,41.40582 h -59.6459 q 0,-27.71801 18.2787,-53.3827 18.5992,-26.00707 50.0254,-41.06376 31.7471,-15.05669 69.587,-15.05669 59.9664,0 93.9581,32.16653 33.9918,31.82449 35.2744,87.94478 v 170.41436 q 0,50.98732 12.1858,81.10071 v 5.47519 z m -98.4478,-48.24972 q 27.8989,0 52.9116,-15.39892 25.0127,-15.39891 36.2365,-40.0371 v -75.9679 h -46.498 q -109.0302,0 -109.0302,68.09733 0,29.77116 18.5993,46.53879 18.5992,16.7678 47.7808,16.7678 z M 852.13723,398.51528 932.94765,120.99331 h 63.49399 L 856.94739,548.39776 q -32.38831,92.39331 -102.93719,92.39331 l -11.22365,-1.02565 -22.12675,-4.4487 v -51.32954 l 16.0338,1.36922 q 30.14358,0 46.81879,-13.00337 16.9959,-13.00354 27.89885,-47.56545 L 824.55908,487.14585 700.77793,120.99466 h 64.77662 z m -252.05175,92.73553 q -5.13086,-10.95022 -8.33752,-39.01044 -41.36733,45.85434 -98.76843,45.85434 -51.30825,0 -84.33794,-30.79765 -32.70901,-31.14005 -32.70901,-78.7055 0,-57.83139 41.04661,-89.65571 41.36727,-32.16654 116.08491,-32.16654 h 57.72176 v -29.08672 q 0,-33.1932 -18.59922,-52.69842 -18.59923,-19.84745 -54.83568,-19.84745 -31.747,0 -53.23232,17.10985 -21.48533,17.10985 -21.48533,41.40582 h -59.64585 q 0,-27.71801 18.27857,-53.3827 18.59924,-26.00707 50.02555,-41.06376 31.74697,-15.05669 69.5868,-15.05669 59.96653,0 93.95827,32.16653 33.99164,31.82449 35.27443,87.94478 v 170.41436 q 0,50.98732 12.18575,81.10071 v 5.47519 z M 501.6378,443.00109 q 27.89885,0 52.91164,-15.39892 25.01277,-15.39891 36.23642,-40.0371 v -75.9679 h -46.49808 q -109.03004,0 -109.03004,68.09733 0,29.77116 18.59925,46.53879 18.59923,16.7678 47.78081,16.7678 z M 79.306711,491.25081 q -5.130824,-10.95022 -8.337585,-39.01044 -41.367276,45.85434 -98.76839,45.85434 -51.308257,0 -84.337936,-30.79765 -32.70902,-31.14005 -32.70902,-78.7055 0,-57.83139 41.04661,-89.65571 41.367275,-32.16654 116.084924,-32.16654 h 57.72178 v -29.08672 q 0,-33.1932 -18.599234,-52.69842 -18.599249,-19.84745 -54.8357009,-19.84745 -31.7469771,0 -53.2323211,17.10985 -21.485328,17.10985 -21.485328,41.40582 h -59.64584 q 0,-27.71801 18.27856,-53.3827 18.59925,-26.00707 50.025548,-41.06376 31.746992,-15.05669 69.58682468,-15.05669 59.96652532,0 93.95823232,32.16653 33.991725,31.82449 35.274415,87.94478 v 170.41436 q 0,50.98732 12.18572,81.10071 v 5.47519 z m -98.447707,-48.24972 q 27.8988665,0 52.911638,-15.39892 25.012772,-15.39891 36.236452,-40.0371 v -75.9679 h -46.4981 q -109.030038,0 -109.030038,68.09733 0,29.77116 18.599234,46.53879 18.599249,16.7678 47.780814,16.7678 z M -268.6274,31.337429 v 89.655881 h 64.77669 v 48.93416 h -64.77669 v 229.61447 q 0,22.24282 8.65827,33.53526 8.65827,10.95038 29.50225,10.95038 10.26165,0 28.21955,-4.10631 v 51.32954 q -23.4094,6.8439 -45.53609,6.8439 -39.76389,0 -59.96651,-25.66468 -20.20263,-25.66486 -20.20263,-72.88809 V 169.92747 h -63.17328 v -48.93416 h 63.17328 V 31.337429 Z M -505.28671,361.21577 h -195.61271 l -43.93269,130.03504 h -63.49397 L -630.0299,-6.988574 h 53.87367 l 178.61685,498.239384 h -63.17329 z m -177.01348,-54.06713 h 158.73492 L -603.09306,74.11213 Z"
               style="fill:#00796B;fill-opacity:1"
               id="path3745" />
          </g>
        </g>
      </g>
    </g>
  </g>
</svg>
